<svg id="visual" viewBox="0 0 2000 1000" width="2000" height="1000" xmlns="http://www.w3.org/2000/svg" xmlns:xlink="http://www.w3.org/1999/xlink" version="1.1"><rect x="0" y="0" width="2000" height="1000" fill="#001220"></rect><path d="M0 362L47.7 358.2C95.3 354.3 190.7 346.7 285.8 346.2C381 345.7 476 352.3 571.2 352.8C666.3 353.3 761.7 347.7 857 341.2C952.3 334.7 1047.7 327.3 1143 313.8C1238.3 300.3 1333.7 280.7 1428.8 281.3C1524 282 1619 303 1714.2 317.2C1809.3 331.3 1904.7 338.7 1952.3 342.3L2000 346L2000 0L1952.3 0C1904.7 0 1809.3 0 1714.2 0C1619 0 1524 0 1428.8 0C1333.7 0 1238.3 0 1143 0C1047.7 0 952.3 0 857 0C761.7 0 666.3 0 571.2 0C476 0 381 0 285.8 0C190.7 0 95.3 0 47.7 0L0 0Z" fill="#fa7268"></path><path d="M0 333L47.7 334C95.3 335 190.7 337 285.8 332.8C381 328.7 476 318.3 571.2 315.2C666.3 312 761.7 316 857 317.3C952.3 318.7 1047.7 317.3 1143 298C1238.3 278.7 1333.7 241.3 1428.8 238.7C1524 236 1619 268 1714.2 273.5C1809.3 279 1904.7 258 1952.3 247.5L2000 237L2000 0L1952.3 0C1904.7 0 1809.3 0 1714.2 0C1619 0 1524 0 1428.8 0C1333.7 0 1238.3 0 1143 0C1047.7 0 952.3 0 857 0C761.7 0 666.3 0 571.2 0C476 0 381 0 285.8 0C190.7 0 95.3 0 47.7 0L0 0Z" fill="#ef5f67"></path><path d="M0 166L47.7 166C95.3 166 190.7 166 285.8 182.3C381 198.7 476 231.3 571.2 234.5C666.3 237.7 761.7 211.3 857 210.3C952.3 209.3 1047.7 233.7 1143 233.5C1238.3 233.3 1333.7 208.7 1428.8 192.2C1524 175.7 1619 167.3 1714.2 166.2C1809.3 165 1904.7 171 1952.3 174L2000 177L2000 0L1952.3 0C1904.7 0 1809.3 0 1714.2 0C1619 0 1524 0 1428.8 0C1333.7 0 1238.3 0 1143 0C1047.7 0 952.3 0 857 0C761.7 0 666.3 0 571.2 0C476 0 381 0 285.8 0C190.7 0 95.3 0 47.7 0L0 0Z" fill="#e34c67"></path><path d="M0 191L47.7 181.2C95.3 171.3 190.7 151.7 285.8 143.8C381 136 476 140 571.2 145.5C666.3 151 761.7 158 857 166C952.3 174 1047.7 183 1143 186.7C1238.3 190.3 1333.7 188.7 1428.8 175.5C1524 162.3 1619 137.7 1714.2 125.5C1809.3 113.3 1904.7 113.7 1952.3 113.8L2000 114L2000 0L1952.3 0C1904.7 0 1809.3 0 1714.2 0C1619 0 1524 0 1428.8 0C1333.7 0 1238.3 0 1143 0C1047.7 0 952.3 0 857 0C761.7 0 666.3 0 571.2 0C476 0 381 0 285.8 0C190.7 0 95.3 0 47.7 0L0 0Z" fill="#d53867"></path><path d="M0 47L47.7 50C95.3 53 190.7 59 285.8 59.7C381 60.3 476 55.7 571.2 51.7C666.3 47.7 761.7 44.3 857 55.7C952.3 67 1047.7 93 1143 102.2C1238.3 111.3 1333.7 103.7 1428.8 97.8C1524 92 1619 88 1714.2 82.7C1809.3 77.3 1904.7 70.7 1952.3 67.3L2000 64L2000 0L1952.3 0C1904.7 0 1809.3 0 1714.2 0C1619 0 1524 0 1428.8 0C1333.7 0 1238.3 0 1143 0C1047.7 0 952.3 0 857 0C761.7 0 666.3 0 571.2 0C476 0 381 0 285.8 0C190.7 0 95.3 0 47.7 0L0 0Z" fill="#c62368"></path></svg>